<svg width="24" height="13" viewBox="0 0 24 13" fill="none" xmlns="http://www.w3.org/2000/svg">
<path d="M1 5.75C0.585786 5.75 0.25 6.08579 0.25 6.5C0.25 6.91421 0.585786 7.25 1 7.25V5.75ZM23.0245 7.03033C23.3174 6.73744 23.3174 6.26256 23.0245 5.96967L18.2515 1.1967C17.9586 0.903806 17.4837 0.903806 17.1908 1.1967C16.8979 1.48959 16.8979 1.96447 17.1908 2.25736L21.4335 6.5L17.1908 10.7426C16.8979 11.0355 16.8979 11.5104 17.1908 11.8033C17.4837 12.0962 17.9586 12.0962 18.2515 11.8033L23.0245 7.03033ZM1 6.5V7.25H22.4941V6.5V5.75H1V6.5Z" fill="white"/>
</svg>
