<svg width="39" height="21" viewBox="0 0 39 21" fill="none" xmlns="http://www.w3.org/2000/svg">
<path d="M2.48314 4.05719V1.0525H5.31257C6.18969 1.0525 6.42413 1.39174 6.42413 1.73502V1.77944C6.42413 2.15503 6.10481 2.32465 5.90675 2.36907C6.17352 2.43369 6.59794 2.61138 6.59794 3.14044V3.1889C6.59794 3.66141 6.31095 4.05719 5.32874 4.05719H2.48314ZM4.96495 1.73502H3.63108V2.15907H4.96495C5.20343 2.15907 5.27215 2.06214 5.27215 1.94906V1.94098C5.27215 1.82387 5.20343 1.73502 4.96495 1.73502ZM5.03771 2.83351H3.63108V3.35044H5.03771C5.33682 3.35044 5.39341 3.20909 5.39341 3.09197V3.07986C5.39341 2.95062 5.33278 2.83351 5.03771 2.83351Z" fill="white"/>
<path d="M9.32683 2.82139L8.82157 1.78752L8.32844 2.82139H9.32683ZM9.92909 4.05719L9.69465 3.57256H7.97678L7.74639 4.05719H6.58228L8.06975 1.0525H9.61381L11.1862 4.05719H9.92909Z" fill="white"/>
<path d="M13.2485 4.11373H12.8807C11.2194 4.11373 11.0456 3.43929 11.0456 3.04755V3.00716H12.3067C12.3188 3.16871 12.4037 3.43121 13.0585 3.43121H13.0949C13.7376 3.43121 13.8305 3.2939 13.8305 3.14851V3.14447C13.8305 2.99101 13.7537 2.89408 13.1232 2.87389L12.5654 2.85774C11.4013 2.82543 11.09 2.41753 11.09 1.9531V1.91675C11.09 1.42809 11.4174 1 12.82 1H13.1798C14.6673 1 15.0068 1.47251 15.0068 1.94906V1.98137H13.7578C13.7457 1.87233 13.681 1.66232 13.0302 1.66232H12.9898C12.3875 1.66232 12.3269 1.76733 12.3269 1.88444V1.88848C12.3269 2.00964 12.4158 2.10656 12.9817 2.11868L13.5234 2.1308C14.6673 2.1631 15.1119 2.42965 15.1119 3.03543V3.09197C15.1119 3.59679 14.8289 4.11373 13.2485 4.11373Z" fill="white"/>
<path d="M15.3711 1.0525H18.6977V1.78752H16.5029V2.1631H18.6532V2.89408H16.5029V3.30602H18.73V4.05719H15.3711V1.0525Z" fill="white"/>
<path d="M19.0618 4.05719V1.0525H20.6382L21.5598 2.74062L22.4976 1.0525H24.0093V4.05719H22.8735V2.1833L21.8185 4.05719H21.2324L20.1815 2.1833V4.05719H19.0618Z" fill="white"/>
<path d="M24.3986 1.0525H27.7252V1.78752H25.5304V2.1631H27.6807V2.89408H25.5304V3.30602H27.7575V4.05719H24.3986V1.0525Z" fill="white"/>
<path d="M28.0893 1.0525H29.3747L31.1209 2.76081V1.0525H32.2607V4.05719H31.1128L29.2292 2.2358V4.05719H28.0893V1.0525Z" fill="white"/>
<path d="M33.853 4.05719V1.87233H32.5555V1.0525H36.2985V1.87233H35.001V4.05719H33.853Z" fill="white"/>
<path d="M11.3984 12.9694C11.3272 13.3491 11.1431 13.8711 10.8462 14.5356C10.5731 15.1526 10.3474 15.5797 10.1693 15.817C10.1337 15.8645 10.003 16.0306 9.77741 16.3154C9.68241 16.434 9.25888 17.0783 8.90456 17.4366C8.34146 18.0062 7.66458 18.0629 7.47478 18.0818C7.28498 18.1008 7.11416 18.0629 7.03825 18.0249C6.96233 17.9869 6.61852 17.7867 6.286 17.3121C6.02474 16.9324 5.82286 16.5645 5.68035 16.2086C5.34784 15.4492 4.84906 14.3101 4.18403 12.7914C4.0534 12.5066 3.98215 12.2515 3.97027 12.0261C3.31712 12.2634 2.51211 12.4426 2.4027 12.4532C2.29329 12.4638 2.21737 12.4828 2.09987 12.3464C1.98237 12.2101 1.97518 11.9371 1.97518 11.7591C1.97518 11.4269 2.183 11.0413 2.59865 10.6022C2.21863 10.3175 0.581393 9.06964 0.478862 8.98262C0.376331 8.8956 0.208164 8.7563 0.140409 8.62666C0.0726541 8.49703 -0.00326395 8.27071 0.0157159 8.09273C0.0346957 7.91475 0.0919519 7.75457 0.158222 7.59438C0.224493 7.4342 0.876693 6.46125 1.74361 6.11715C2.088 5.97477 3.17924 5.69 3.68526 5.61881C4.19127 5.54762 5.02126 5.42303 5.76942 5.42303C6.35132 5.42303 6.95697 5.46456 7.58638 5.54762C9.03519 5.73746 9.7596 6.28327 9.7596 7.18503C9.7596 7.69524 9.61709 8.19951 9.33208 8.69786C9.8071 8.75718 10.1337 8.81058 10.3118 8.85804C10.7393 8.95296 11.0422 9.08941 11.2203 9.26739C11.3984 9.44537 11.5231 9.71234 11.5944 10.0683C11.7131 10.626 11.7547 10.9997 11.7191 11.1896L11.3984 12.9694ZM8.47704 7.50539C8.39745 7.15907 6.43089 7.05456 5.92974 7.02485C5.42858 6.99514 4.68475 7.02485 4.14841 7.11384C3.61206 7.20283 3.29337 7.32741 2.86585 7.4342C2.37895 7.56472 1.97518 7.7249 1.65454 7.91475C2.78272 8.79278 3.65557 9.42164 4.2731 9.80133C4.79562 9.63521 6.19635 9.14793 6.58883 8.96483C6.98131 8.78172 8.55663 7.85171 8.47704 7.50539ZM10.4187 11.4387C10.4187 11.2252 10.4068 11.065 10.3831 10.9582C10.2999 10.5785 9.81304 10.3887 8.92238 10.3887C7.90108 10.3887 6.66602 10.7328 5.2172 11.4209C5.33596 11.8718 5.53784 12.4117 5.82286 13.0406C5.98912 13.3965 6.23256 13.9305 6.5532 14.6424C6.64821 14.8797 6.80259 15.2356 7.01635 15.7102C7.24199 16.173 7.49137 16.3747 7.76451 16.3154C8.03765 16.2561 8.40579 15.9001 8.86894 15.2475C9.39146 14.5119 9.75366 13.9245 9.95555 13.4855C10.2643 12.821 10.4187 12.1388 10.4187 11.4387Z" fill="#00FD72"/>
<path d="M21.2833 13.2185C20.9151 14.2508 20.1729 15.0992 19.0566 15.7636C18.0353 16.3688 16.9725 16.6713 15.868 16.6713C15.0843 16.6713 14.342 16.5171 13.6414 16.2086C12.2282 15.5797 11.5216 14.411 11.5216 12.7024C11.5216 10.9938 12.2282 9.43944 13.6414 8.03933C14.532 7.1613 15.3455 6.70449 16.0818 6.66889C16.6281 6.64516 17.0355 6.70813 17.3443 6.9217C17.368 6.93357 17.572 7.07354 17.629 7.13048C17.6859 7.18742 17.8567 7.3013 17.9327 7.35824C18.0086 7.41518 18.0465 7.43416 18.1414 7.4911C18.2363 7.54804 18.16 7.51726 18.3975 7.64778C18.6825 7.80203 18.8607 7.90288 18.9319 7.95034C20.0601 8.79278 20.8083 9.91405 21.1764 11.3142C21.307 11.8125 21.3724 12.2515 21.3724 12.6312C21.3724 12.8566 21.3427 13.0524 21.2833 13.2185ZM19.3951 9.94371C18.7775 8.99449 17.8691 8.51988 16.6696 8.51988C16.3846 8.51988 16.1055 8.55547 15.8324 8.62666C15.773 8.50801 15.6899 8.40122 15.583 8.3063C14.7755 8.79278 14.057 9.59962 13.4276 10.7268C12.9882 11.5218 12.7685 12.3642 12.7685 13.2541C12.7685 14.0135 13.0357 14.5356 13.5701 14.8203C13.9739 15.0458 14.6033 15.1585 15.4583 15.1585C16.919 15.1585 18.2016 14.6305 19.306 13.5745C19.7573 13.1355 19.9829 12.5778 19.9829 11.9015C19.9829 11.2014 19.787 10.5488 19.3951 9.94371Z" fill="#00FD72"/>
<path d="M27.0199 8.75125C27.0199 11.1243 26.3905 14.411 25.1317 18.6113C25.0129 19.0029 24.9362 19.847 24.8288 19.9995C24.7215 20.1521 24.4238 20.3404 24.1341 20.3911C23.8445 20.4418 23.5997 20.0885 23.4572 19.3054C23.4216 19.1274 23.4017 18.8775 23.4572 18.7359C23.5127 18.5943 23.6947 18.2257 23.7778 17.9884C24.0035 17.3358 24.3419 16.1374 24.7932 14.3932C25.1376 13.0643 25.3098 12.3464 25.3098 12.2396C25.3098 12.1447 25.2979 12.0617 25.2742 11.9905C24.9298 12.4651 24.4429 12.7439 23.8135 12.827C23.0772 12.9219 22.3647 12.477 21.6759 11.4921C21.1058 10.6734 20.7674 9.89032 20.6605 9.14281C20.4468 7.68337 20.3533 7.23465 20.3577 6.79348C20.3621 6.35231 20.4841 4.69503 20.518 4.62213C20.5519 4.54923 20.6071 4.55094 20.6783 4.55094C20.8208 4.55094 20.993 4.65179 21.1949 4.8535C21.3612 5.04335 21.4799 5.21539 21.5512 5.36964C21.6106 5.46456 21.6224 5.63661 21.5868 5.88578C21.5749 5.99257 21.5469 6.22614 21.5334 6.38412C21.5198 6.54211 21.5156 7.20663 21.5334 7.71897C21.5512 8.23131 21.6996 8.66819 21.854 9.42757C21.9965 10.0683 22.2697 10.5844 22.6734 10.976C22.8634 11.1658 23.1247 11.2608 23.4572 11.2608C23.5166 11.2608 23.57 11.2489 23.6175 11.2252C24.4963 10.7268 25.1317 9.11314 25.5236 6.38412C25.5711 6.0163 25.6898 4.99588 25.8798 3.32288C26.0698 3.32288 26.3181 3.4273 26.4356 3.50534C26.5531 3.58337 26.7044 3.78365 26.7883 3.91021C26.8721 4.03677 27.024 4.18861 27.024 4.58718C27.024 4.98576 27.0199 8.75125 27.0199 8.75125Z" fill="#00FD72"/>
<path d="M37.815 13.3431C37.7496 13.5581 37.6433 14.0391 37.53 14.2508C36.3424 16.4696 34.9174 17.8935 33.2548 18.5223C33.2548 18.5223 33.0596 18.5753 32.8508 18.6133C32.642 18.6512 32.471 18.6647 32.2573 18.6647C31.1766 18.6647 30.0662 18.024 28.9262 16.7425C28.4512 16.2086 28.2136 15.5857 28.2136 14.8737C28.2136 14.5059 28.3488 14.191 28.4095 14.1151C28.4702 14.0391 28.5123 13.9991 28.5699 13.9838C28.6275 13.9686 28.7093 13.966 28.7302 13.966C28.7512 13.966 28.7891 13.9632 28.884 14.0391C28.9789 14.1151 29.133 14.2194 29.2636 14.4567C29.3942 14.694 29.4534 14.8173 29.4914 14.9312C29.5293 15.0451 29.6052 15.2349 29.6432 15.3867C29.6812 15.5385 29.7831 15.6998 29.8899 15.8422C30.5193 16.7202 31.0994 16.9739 31.9544 16.9739C32.9282 16.9739 33.8565 16.3587 34.6442 15.4077C35.432 14.4567 36.4688 12.6799 36.457 11.8375C36.3382 11.7663 36.2861 11.7995 36.0014 11.7995C35.7167 11.7995 34.9576 11.8944 34.578 11.9324C34.1984 11.9703 34.4245 11.9489 32.2038 12.1507C30.5412 12.293 29.3834 12.4117 28.7302 12.5066C27.8871 12.6253 27.3645 12.6846 27.1627 12.6846C26.8658 12.6846 26.5867 12.649 26.3254 12.5778C26.1829 12.5422 26.0107 12.4414 25.8088 12.2752C25.607 12.1091 25.4704 11.9549 25.3991 11.8125C25.2091 11.4447 25.1498 11.065 25.221 10.6734C25.4229 9.54622 25.9217 8.31817 26.7173 6.98925C27.7386 5.28065 28.7955 4.42635 29.8881 4.42635C30.4937 4.42635 31.0341 4.65772 31.5091 5.12047C31.9247 5.53575 32.2157 6.05783 32.382 6.68669C32.5245 7.22063 32.661 8.76274 32.623 8.8956C32.5851 9.02846 32.5066 9.07755 32.3285 9.1962C32.1623 9.30299 32.0376 9.35638 31.9544 9.35638C31.8832 9.35638 31.8259 9.33214 31.7585 9.26739C31.6911 9.20264 31.4273 8.8956 31.4022 8.76905C31.3771 8.64249 31.4083 8.38315 31.4083 8.23131C31.4083 8.07947 31.2185 6.94068 31.1806 6.76986C31.1426 6.59905 31.1225 6.40329 31.0281 6.22394C30.9338 6.04459 30.6541 5.93324 30.2978 5.92138C29.7634 5.89765 29.2349 6.21208 28.7124 6.86467C28.4393 7.20876 28.083 7.79016 27.6436 8.60887C27.3467 9.1784 27.0142 9.96744 26.6461 10.976C28.4393 10.7624 31.3013 10.4599 35.2321 10.0683C35.6952 10.0327 36.0752 10.0327 36.3721 10.0683C36.7047 10.1158 36.9956 10.2522 37.245 10.4776C37.7319 10.9167 37.9753 11.5455 37.9753 12.3642C37.9753 12.6727 37.8804 13.1281 37.815 13.3431Z" fill="#00FD72"/>
</svg>
