<svg width="24" height="25" viewBox="0 0 24 25" fill="none" xmlns="http://www.w3.org/2000/svg">
<g clip-path="url(#clip0_4092_6507)">
<path d="M12 2.31641C17.523 2.31641 22 6.79341 22 12.3164C22 17.8394 17.523 22.3164 12 22.3164C6.477 22.3164 2 17.8394 2 12.3164C2 6.79341 6.477 2.31641 12 2.31641ZM12 4.31641C9.87827 4.31641 7.84344 5.15926 6.34315 6.65955C4.84285 8.15984 4 10.1947 4 12.3164C4 14.4381 4.84285 16.473 6.34315 17.9733C7.84344 19.4736 9.87827 20.3164 12 20.3164C14.1217 20.3164 16.1566 19.4736 17.6569 17.9733C19.1571 16.473 20 14.4381 20 12.3164C20 10.1947 19.1571 8.15984 17.6569 6.65955C16.1566 5.15926 14.1217 4.31641 12 4.31641ZM12 6.31641C12.2449 6.31644 12.4813 6.40636 12.6644 6.56912C12.8474 6.73188 12.9643 6.95615 12.993 7.19941L13 7.31641V11.9024L15.707 14.6094C15.8863 14.7894 15.9905 15.0308 15.9982 15.2848C16.006 15.5387 15.9168 15.7861 15.7488 15.9767C15.5807 16.1672 15.3464 16.2867 15.0935 16.3108C14.8406 16.3349 14.588 16.2618 14.387 16.1064L14.293 16.0234L11.293 13.0234C11.1376 12.8679 11.0378 12.6654 11.009 12.4474L11 12.3164V7.31641C11 7.05119 11.1054 6.79684 11.2929 6.6093C11.4804 6.42176 11.7348 6.31641 12 6.31641Z" fill="white"/>
</g>
<defs>
<clipPath id="clip0_4092_6507">
<rect width="24" height="24" fill="white" transform="translate(0 0.316406)"/>
</clipPath>
</defs>
</svg>
