<svg width="15" height="16" viewBox="0 0 15 16" fill="none" xmlns="http://www.w3.org/2000/svg">
<g clip-path="url(#clip0_4092_6582)">
<path d="M13.5 7.81683L7.74302 13.5738C6.94386 14.3525 5.87018 14.785 4.75445 14.7777C3.63873 14.7704 2.57076 14.324 1.78181 13.535C0.992855 12.7461 0.546413 11.6781 0.539152 10.5624C0.531892 9.44667 0.964398 8.37299 1.74302 7.57383L7.67202 1.64483C8.20245 1.1144 8.92187 0.816406 9.67202 0.816406C10.4222 0.816406 11.1416 1.1144 11.672 1.64483C12.2025 2.17527 12.5004 2.89469 12.5004 3.64483C12.5004 4.39498 12.2025 5.1144 11.672 5.64483L5.91402 11.4028C5.6488 11.6681 5.28909 11.817 4.91402 11.817C4.53894 11.817 4.17923 11.6681 3.91402 11.4028C3.6488 11.1376 3.4998 10.7779 3.4998 10.4028C3.4998 10.0278 3.6488 9.66805 3.91402 9.40283L9.50002 3.81683" stroke="white"/>
</g>
<defs>
<clipPath id="clip0_4092_6582">
<rect width="15" height="15" fill="white" transform="translate(0 0.316406)"/>
</clipPath>
</defs>
</svg>
