<svg width="112" height="57" viewBox="0 0 112 57" fill="none" xmlns="http://www.w3.org/2000/svg">
<path d="M7.2592 8.9364V0.153465H15.5298C18.0937 0.153465 18.779 1.14509 18.779 2.14851V2.27837C18.779 3.37623 17.8456 3.87204 17.2667 4.0019C18.0465 4.19078 19.2871 4.7102 19.2871 6.25666V6.39832C19.2871 7.7795 18.4482 8.9364 15.5771 8.9364H7.2592ZM14.5137 2.14851H10.6147V3.38804H14.5137C15.2108 3.38804 15.4117 3.10472 15.4117 2.77418V2.75057C15.4117 2.40822 15.2108 2.14851 14.5137 2.14851ZM14.7264 5.35948H10.6147V6.87052H14.7264C15.6007 6.87052 15.7661 6.45734 15.7661 6.115V6.07958C15.7661 5.70182 15.5889 5.35948 14.7264 5.35948Z" fill="white"/>
<path d="M27.2638 5.32406L25.7869 2.30198L24.3455 5.32406H27.2638ZM29.0243 8.9364L28.339 7.51979H23.3175L22.6441 8.9364H19.2413L23.5893 0.153465H28.1027L32.6988 8.9364H29.0243Z" fill="white"/>
<path d="M38.7272 9.10167H37.652C32.7959 9.10167 32.2879 7.13023 32.2879 5.98514V5.86709H35.9742C36.0097 6.33929 36.2578 7.10662 38.1718 7.10662H38.2782C40.1568 7.10662 40.4286 6.70525 40.4286 6.28027V6.26846C40.4286 5.81987 40.2041 5.53655 38.3609 5.47753L36.7304 5.43031C33.3276 5.33587 32.4178 4.14356 32.4178 2.78598V2.67974C32.4178 1.25133 33.3749 0 37.4748 0H38.5263C42.8743 0 43.8668 1.38119 43.8668 2.77418V2.86862H40.2159C40.1804 2.54988 39.9914 1.93602 38.0891 1.93602H37.971C36.2105 1.93602 36.0333 2.24295 36.0333 2.5853V2.5971C36.0333 2.95125 36.2932 3.23457 37.9474 3.26999L39.5306 3.3054C42.8743 3.39984 44.174 4.17898 44.174 5.94973V6.115C44.174 7.59062 43.3469 9.10167 38.7272 9.10167Z" fill="white"/>
<path d="M44.9317 0.153465H54.6556V2.30198H48.24V3.39984H54.5257V5.53655H48.24V6.74066H54.7502V8.9364H44.9317V0.153465Z" fill="white"/>
<path d="M55.72 8.9364V0.153465H60.328L63.0218 5.08796L65.763 0.153465H70.1818V8.9364H66.8618V3.45887L63.778 8.9364H62.0648L58.9928 3.45887V8.9364H55.72Z" fill="white"/>
<path d="M71.3198 0.153465H81.0437V2.30198H74.6281V3.39984H80.9137V5.53655H74.6281V6.74066H81.1382V8.9364H71.3198V0.153465Z" fill="white"/>
<path d="M82.1081 0.153465H85.8653L90.9695 5.14699V0.153465H94.3014V8.9364H90.9459L85.44 3.61233V8.9364H82.1081V0.153465Z" fill="white"/>
<path d="M98.9558 8.9364V2.54988H95.1631V0.153465H106.104V2.54988H102.311V8.9364H98.9558Z" fill="white"/>
<path d="M33.3193 34.9874C33.111 36.0972 32.5729 37.6233 31.7051 39.5655C30.9067 41.3691 30.2472 42.6177 29.7265 43.3113C29.6223 43.4501 29.2405 43.9356 28.5809 44.768C28.3032 45.1149 27.0652 46.9981 26.0295 48.0456C24.3835 49.7103 22.405 49.876 21.8502 49.9315C21.2954 49.987 20.796 49.876 20.5741 49.7651C20.3522 49.6541 19.3472 49.0687 18.3753 47.6814C17.6116 46.5715 17.0215 45.4964 16.6049 44.4559C15.6329 42.2361 14.175 38.9066 12.231 34.4671C11.8492 33.6347 11.6409 32.889 11.6062 32.2301C9.69699 32.9237 7.34388 33.4477 7.02408 33.4786C6.70427 33.5096 6.48235 33.5651 6.13889 33.1665C5.79543 32.7679 5.7744 31.9699 5.7744 31.4497C5.7744 30.4786 6.38188 29.3514 7.59684 28.0681C6.48602 27.2357 1.70025 23.5882 1.40055 23.3338C1.10084 23.0795 0.609277 22.6723 0.411225 22.2933C0.213172 21.9144 -0.00874263 21.2528 0.0467368 20.7326C0.102216 20.2123 0.269581 19.7441 0.463294 19.2759C0.657008 18.8077 2.56344 15.9636 5.0975 14.9578C6.10418 14.5416 9.29398 13.7092 10.7731 13.5011C12.2522 13.293 14.6783 12.9289 16.8652 12.9289C18.5662 12.9289 20.3366 13.0503 22.1764 13.293C26.4114 13.848 28.5289 15.4434 28.5289 18.0793C28.5289 19.5707 28.1123 21.0447 27.2792 22.5014C28.6677 22.6748 29.6223 22.8309 30.143 22.9696C31.3927 23.2471 32.2779 23.646 32.7986 24.1662C33.3193 24.6865 33.6838 25.4668 33.892 26.5073C34.2392 28.1374 34.3607 29.23 34.2565 29.7849L33.3193 34.9874ZM24.7798 19.0158C24.5472 18.0035 18.7988 17.6979 17.3339 17.6111C15.869 17.5243 13.6947 17.6111 12.1269 17.8712C10.5591 18.1313 9.62756 18.4955 8.37789 18.8077C6.95465 19.1892 5.7744 19.6574 4.83715 20.2123C8.1349 22.7789 10.6863 24.6171 12.4914 25.727C14.0188 25.2414 18.1132 23.817 19.2605 23.2818C20.4077 22.7466 25.0125 20.0281 24.7798 19.0158ZM30.4554 30.5132C30.4554 29.8889 30.4207 29.4207 30.3513 29.1086C30.1083 27.9987 28.6851 27.4438 26.0816 27.4438C23.0963 27.4438 19.4861 28.4496 15.2511 30.4612C15.5982 31.7792 16.1883 33.3573 17.0215 35.1955C17.5074 36.236 18.2191 37.7967 19.1563 39.8777C19.434 40.5714 19.8853 41.6119 20.5101 42.9992C21.1697 44.3518 21.8987 44.9414 22.6971 44.768C23.4955 44.5946 24.5716 43.5541 25.9254 41.6465C27.4528 39.4962 28.5115 37.7794 29.1016 36.4961C30.0042 34.5538 30.4554 32.5595 30.4554 30.5132Z" fill="#00FD72"/>
<path d="M62.2135 35.7157C61.1374 38.7331 58.9678 41.213 55.7048 43.1553C52.7194 44.9241 49.6126 45.8085 46.3843 45.8085C44.0932 45.8085 41.9237 45.3576 39.8756 44.4559C35.7447 42.6177 33.6793 39.2014 33.6793 34.207C33.6793 29.2126 35.7447 24.6691 39.8756 20.5765C42.4791 18.01 44.8569 16.6747 47.0091 16.5706C48.6059 16.5012 49.7969 16.6853 50.6995 17.3096C50.7689 17.3443 51.3652 17.7534 51.5317 17.9199C51.6981 18.0863 52.1974 18.4192 52.4193 18.5856C52.6413 18.7521 52.7522 18.8075 53.0296 18.974C53.307 19.1404 53.0839 19.0504 53.7782 19.432C54.6113 19.8828 55.132 20.1777 55.3403 20.3164C58.638 22.7789 60.825 26.0565 61.9011 30.1491C62.2829 31.6058 62.4738 32.889 62.4738 33.9989C62.4738 34.6579 62.387 35.2301 62.2135 35.7157ZM56.6941 26.1432C54.889 23.3685 52.2335 21.9812 48.7274 21.9812C47.8943 21.9812 47.0786 22.0852 46.2801 22.2933C46.1066 21.9465 45.8636 21.6343 45.5512 21.3569C43.1907 22.7789 41.0905 25.1373 39.2507 28.4322C37.9664 30.756 37.3242 33.2185 37.3242 35.8198C37.3242 38.0395 38.1052 39.5655 39.6673 40.3979C40.8475 41.0569 42.6873 41.3864 45.1867 41.3864C49.4564 41.3864 53.2054 39.843 56.4337 36.7562C57.7528 35.4729 58.4124 33.8428 58.4124 31.8659C58.4124 29.8196 57.8396 27.912 56.6941 26.1432Z" fill="#00FD72"/>
<path d="M78.9819 22.6575C78.9819 29.5941 77.1422 39.2014 73.4626 51.4792C73.1154 52.6238 72.8913 55.0911 72.5774 55.5371C72.2635 55.9832 71.3933 56.5336 70.5467 56.6817C69.7 56.8298 68.9846 55.7973 68.568 53.5082C68.4639 52.9879 68.4057 52.2573 68.568 51.8434C68.7303 51.4295 69.2623 50.352 69.5053 49.6583C70.1648 47.7508 71.1541 44.2478 72.4732 39.1493C73.4799 35.2648 73.9833 33.1665 73.9833 32.8544C73.9833 32.5769 73.9486 32.3341 73.8791 32.126C72.8724 33.5133 71.4492 34.3284 69.6094 34.5712C67.4572 34.8486 65.3744 33.548 63.361 30.6693C61.6948 28.2762 60.7055 25.9871 60.3931 23.802C59.7682 19.536 59.4951 18.2243 59.5079 16.9348C59.5207 15.6452 59.8775 10.8009 59.9765 10.5878C60.0755 10.3747 60.2369 10.3797 60.4451 10.3797C60.8617 10.3797 61.365 10.6745 61.9552 11.2641C62.4411 11.819 62.7883 12.3219 62.9966 12.7728C63.1701 13.0503 63.2048 13.5532 63.1007 14.2815C63.066 14.5937 62.984 15.2764 62.9445 15.7382C62.9049 16.2 62.8924 18.1425 62.9445 19.6401C62.9966 21.1377 63.4305 22.4147 63.8817 24.6344C64.2983 26.5073 65.0967 28.016 66.2769 29.1606C66.8324 29.7155 67.596 29.993 68.568 29.993C68.7416 29.993 68.8978 29.9583 69.0366 29.8889C71.6054 28.4322 73.4626 23.7153 74.6081 15.7382C74.7469 14.663 75.0941 11.6803 75.6495 6.78995C76.2049 6.78995 76.9308 7.09519 77.2741 7.32329C77.6175 7.55139 78.0599 8.13682 78.305 8.50677C78.5502 8.87671 78.994 9.32055 78.994 10.4856C78.994 11.6507 78.9819 22.6575 78.9819 22.6575Z" fill="#00FD72"/>
<path d="M110.537 36.0799C110.346 36.7084 110.035 38.1144 109.704 38.7332C106.233 45.2189 102.067 49.3809 97.2072 51.2191C97.2072 51.2191 96.6365 51.374 96.0262 51.4849C95.4159 51.5959 94.9161 51.6353 94.2913 51.6353C91.1324 51.6353 87.8867 49.7624 84.5542 46.0166C83.1657 44.4559 82.4714 42.635 82.4714 40.554C82.4714 39.4788 82.8665 38.5582 83.044 38.3363C83.2215 38.1144 83.3445 37.9973 83.5128 37.9528C83.6812 37.9083 83.9203 37.9007 83.9815 37.9007C84.0426 37.9007 84.1536 37.8925 84.431 38.1144C84.7084 38.3363 85.1587 38.6413 85.5406 39.3349C85.9224 40.0286 86.0954 40.389 86.2063 40.7219C86.3173 41.0548 86.5392 41.6096 86.6502 42.0534C86.7611 42.4973 87.059 42.9687 87.3714 43.3849C89.2112 45.9515 90.9067 46.6929 93.4061 46.6929C96.2525 46.6929 98.9658 44.8946 101.269 42.1148C103.571 39.3349 106.602 34.1413 106.567 31.6788C106.22 31.4707 106.068 31.5678 105.236 31.5678C104.404 31.5678 102.184 31.8452 101.075 31.9562C99.9652 32.0671 100.626 32.0046 94.135 32.5942C89.2752 33.0104 85.8907 33.3573 83.9815 33.6347C81.5168 33.9816 79.9894 34.155 79.3993 34.155C78.5315 34.155 77.7157 34.0509 76.952 33.8428C76.5355 33.7388 76.0322 33.444 75.442 32.9584C74.8519 32.4728 74.4527 32.022 74.2444 31.6058C73.689 30.5306 73.5155 29.4207 73.7237 28.2762C74.3139 24.9813 75.7718 21.3916 78.0976 17.507C81.0829 12.5127 84.1724 10.0155 87.366 10.0155C89.1364 10.0155 90.7158 10.6918 92.1043 12.0445C93.3193 13.2584 94.1698 14.7844 94.6557 16.6226C95.0723 18.1834 95.4714 22.6911 95.3604 23.0795C95.2495 23.4678 95.0202 23.6113 94.4995 23.9581C94.0135 24.2703 93.6491 24.4263 93.4061 24.4263C93.1978 24.4263 93.0303 24.3555 92.8333 24.1662C92.6363 23.977 91.8652 23.0795 91.7919 22.7095C91.7186 22.3396 91.8097 21.5815 91.8097 21.1377C91.8097 20.6938 91.2549 17.3651 91.144 16.8658C91.033 16.3664 90.9741 15.7942 90.6984 15.27C90.4228 14.7457 89.605 14.4202 88.5636 14.3856C87.0015 14.3162 85.4568 15.2353 83.9294 17.1429C83.131 18.1487 82.0896 19.8482 80.8052 22.2413C79.9374 23.9061 78.9654 26.2125 77.8893 29.1606C83.131 28.5363 91.4969 27.6519 102.987 26.5073C104.341 26.4033 105.452 26.4033 106.319 26.5073C107.291 26.6461 108.142 27.0449 108.871 27.7039C110.294 28.9872 111.006 30.8254 111.006 33.2185C111.006 34.1203 110.728 35.4514 110.537 36.0799Z" fill="#00FD72"/>
</svg>
