<svg width="180" height="21" viewBox="0 0 180 21" fill="none" xmlns="http://www.w3.org/2000/svg">
<g clip-path="url(#clip0_4092_5090)">
<path fill-rule="evenodd" clip-rule="evenodd" d="M6.11703 0.0136719H0.168091V11.9844C0.168091 16.1751 3.56535 19.5724 7.75608 19.5724H17.7628V14.3471H9.91103C7.81567 14.3471 6.11703 12.6485 6.11703 10.5531V0.0136719ZM21.4682 0.0136775H27.4171V10.5531C27.4171 12.6485 29.1158 14.3471 31.2111 14.3471H36.8465C38.9365 14.341 40.6291 12.6447 40.6291 10.5532V0.0136954H46.578V11.9844C46.578 16.1509 43.2202 19.533 39.0629 19.5721V19.5724H39.0064L38.9901 19.5724H28.9832V19.5721C24.8261 19.533 21.4682 16.1508 21.4682 11.9844V0.0136775ZM56.2317 19.5725H50.2827V7.60176C50.2827 3.43552 53.6403 0.0534892 57.7973 0.0141196V0.013763H67.8039L67.8162 0.0137728H67.8772V0.0141099C72.0343 0.0534813 75.3919 3.43549 75.3919 7.60173V19.5725H69.4429V9.03304C69.4429 6.94028 67.7485 5.24325 65.6567 5.23906H60.0255C57.9301 5.23906 56.2317 6.9377 56.2317 9.03304V19.5725ZM166.532 19.8216H172.481V7.33026C172.481 3.42701 169.316 0.262814 165.413 0.262814H157.538V5.48811H166.532V19.8216ZM85.291 0.262717H79.342V12.2335C79.342 16.3999 82.7001 19.782 86.8571 19.8211V19.8214H96.864H96.8783H96.9368V19.8211C101.094 19.782 104.452 16.3999 104.452 12.2335V0.262727H98.503V10.8022C98.503 12.8944 96.8093 14.591 94.7186 14.5962H89.085C86.9897 14.5962 85.291 12.8975 85.291 10.8022V0.262717ZM174.155 3.21944C174.155 1.59993 175.468 0.262711 177.087 0.262711C178.707 0.262711 180.019 1.59993 180.019 3.21944C180.019 4.83894 178.707 6.17615 177.087 6.17615C175.468 6.17615 174.155 4.83894 174.155 3.21944ZM153.14 0.492183V5.50499L144.033 5.50496C142.73 5.50496 141.581 6.16157 140.898 7.1619H147.066V12.0898H140.372C140.811 13.7002 142.284 14.8844 144.033 14.8844H153.477V19.8972H141.667C137.48 19.8972 134.085 16.5056 134.079 12.3197H134.079V8.08016C134.079 3.88943 137.476 0.492178 141.667 0.492178L153.14 0.492183Z" fill="white"/>
<path fill-rule="evenodd" clip-rule="evenodd" d="M107.688 -0.138671V4.8896H107.689V12.6737H113.554V4.88957H117.742L123.161 4.8896C124.086 4.8896 124.836 5.45239 124.836 6.14666C124.836 6.84091 124.086 7.40373 123.161 7.40373H115.788V12.432H117.743L123.161 12.4321C124.086 12.4321 124.837 12.9949 124.837 13.6892C124.837 14.3834 124.086 14.9462 123.161 14.9462H107.549V19.9745H123.951C128.767 19.9745 131.148 16.9119 131.148 13.6892C131.148 12.3313 130.725 11.0018 129.876 9.91784C130.725 8.83394 131.147 7.50451 131.147 6.14666C131.147 2.92398 128.767 -0.138662 123.951 -0.138662L123.651 -0.138672L107.688 -0.138671Z" fill="white"/>
</g>
<defs>
<clipPath id="clip0_4092_5090">
<rect width="180" height="20.0826" fill="white" transform="translate(0 0.203125)"/>
</clipPath>
</defs>
</svg>
