<svg width="98" height="32" viewBox="0 0 98 32" fill="none" xmlns="http://www.w3.org/2000/svg">
<g clip-path="url(#clip0_4086_4830)">
<path fill-rule="evenodd" clip-rule="evenodd" d="M94.9801 11.2336L91.0936 7.40983H83.8719V2.49088H77.7613V24.8973H83.8719V13.4198H88.8694V24.8973H94.9801V11.2336ZM75.5392 7.40983H66.0976L62.209 11.2336V21.0694L66.0976 24.8952H75.5392V18.8853H68.3175V13.4198H75.5392V7.40983ZM59.987 7.40983H54.9895V2.49088H48.8788V21.0715L52.7674 24.8973H59.9891V18.8874H54.9916V13.4219H59.9891V7.41193L59.987 7.40983ZM46.6568 2.49088H40.5483V5.22363H46.6568V2.49088ZM46.6568 7.40983H40.5483V24.8973H46.6568V7.40983ZM38.3241 7.40983H32.2134V18.8853H29.9913V7.40983H23.8807V18.8853H21.6608V7.40983H15.5501V24.8973H34.4355L38.3219 21.0715V7.40983H38.3241ZM13.3302 7.40983H8.33271V2.49088H2.22206V21.0715L6.11065 24.8973H13.3302V18.8874H8.33271V13.4219H13.3302V7.41193V7.40983ZM97.2 10.1405V26.5348L88.8694 32.0003H83.3164V29.2676L79.4278 32.0003H74.4303V29.2676L71.6549 32.0003H62.7667L59.9891 29.2676L59.4336 32.0003H51.6585L48.4793 29.2676L48.3019 32.0003H39.4885L39.1766 29.2676L36.79 32.0003H23.3295L20.5519 30.9072V32.0003H13.3323L4.99963 27.0814L0 22.1646V0.304688H10.5548L15.5523 5.22363H38.3262V0.304688H57.2115V5.22363H62.2112V7.95427L64.9887 5.22363H70.5417L75.5392 0.304688H86.0919V5.22363H92.2025L97.2 10.1405Z" fill="white"/>
</g>
<defs>
<clipPath id="clip0_4086_4830">
<rect width="97.2" height="31.6957" fill="white" transform="translate(0 0.304688)"/>
</clipPath>
</defs>
</svg>
